<?xml version="1.0" encoding="utf-8"?>
<!-- Generator: Adobe Illustrator 18.1.1, SVG Export Plug-In . SVG Version: 6.00 Build 0)  -->
<svg version="1.1" id="Ebene_1" xmlns="http://www.w3.org/2000/svg" xmlns:xlink="http://www.w3.org/1999/xlink" x="0px" y="0px"
	 viewBox="0 0 49.6 49.6" enable-background="new 0 0 49.6 49.6" xml:space="preserve">
<g>
	<defs>
		<rect id="SVGID_1_" y="0" width="49.6" height="49.6"/>
	</defs>
	<clipPath id="SVGID_2_">
		<use xlink:href="#SVGID_1_"  overflow="visible"/>
	</clipPath>
	<path clip-path="url(#SVGID_2_)" fill="#3D98A8" d="M15.9,0C15.9,0,0,0,0,15.9v33.7h49.6V0H15.9z"/>
	<path clip-path="url(#SVGID_2_)" fill="#FFFFFF" d="M40.9,13.8c-2.1,0.8-2.3,4-11.6,1.1c-4.9-1.5-8.7-1.7-11.2-1.5
		c1.2,0.7,2.3,1.6,3.3,2.7c2.1,2.3,4.6,5.6,5.6,10.8c0.8,4.2-0.4,8.3-2.9,11.1c4.8-2,9.6-6.2,12.6-12.6c1.7-3.7,4.1-3.4,5.8-5.5
		C43.9,18.1,42.9,13,40.9,13.8"/>
	<path clip-path="url(#SVGID_2_)" fill="#FFFFFF" d="M16.8,34.1c-1.3,0.2-2.6-1-2.9-2.6c-0.3-1.7,0.5-3.2,1.8-3.5
		c1.3-0.2,2.6,1,2.9,2.6C18.8,32.3,18,33.9,16.8,34.1 M24.7,27.4c-0.9-4.6-3.1-7.5-5-9.7c-1.6-1.8-3.7-3-5.4-3
		c-0.5,0-1.1,0.1-1.5,0.4c-0.9,0.5-1.3,1.5-1.5,2.6c-0.2,2.2-1,4.3-2.1,6.2c-1.3,2.1-1.7,4.8-1.1,7.5c1.1,4.5,4.7,7.6,8.6,7.6
		c0.6,0,1.1-0.1,1.7-0.2C22.9,37.8,25.7,32.6,24.7,27.4"/>
</g>
</svg>
