<?xml version="1.0" encoding="utf-8"?>
<!-- Generator: Adobe Illustrator 18.1.1, SVG Export Plug-In . SVG Version: 6.00 Build 0)  -->
<svg version="1.1" id="Ebene_1" xmlns="http://www.w3.org/2000/svg" xmlns:xlink="http://www.w3.org/1999/xlink" x="0px" y="0px"
	 viewBox="0 0 49.6 49.6" enable-background="new 0 0 49.6 49.6" xml:space="preserve">
<g>
	<defs>
		<rect id="SVGID_1_" y="0" width="49.6" height="49.6"/>
	</defs>
	<clipPath id="SVGID_2_">
		<use xlink:href="#SVGID_1_"  overflow="visible"/>
	</clipPath>
	<path clip-path="url(#SVGID_2_)" fill="#8172B2" d="M15.9,0C15.9,0,0,0,0,15.9v33.7h49.6V0H15.9z"/>
	<path clip-path="url(#SVGID_2_)" fill="#FFFFFF" d="M33.5,16.4c0,0-0.1,0-0.3,0c-0.2,0-0.6,0-1.4-0.3c-1.1-0.4-2.6-1.1-4-2
		c0,0-0.1,0-0.1-0.1c0.7-0.5,1.3-0.9,1.9-1.3C32.6,14.7,33.6,16.2,33.5,16.4 M28,24.9c0,0-0.1,0.1-0.5,0.1c-0.3,0-0.9-0.1-1.9-0.4
		c-1.5-0.5-3.4-1.5-5.3-2.7c-0.3-0.2-0.5-0.4-0.8-0.5c0.8-0.8,1.6-1.6,2.4-2.3c0.1,0,0.1,0.1,0.2,0.1c1.9,1.2,3.6,2.5,4.7,3.7
		C27.8,24.1,28.1,24.8,28,24.9 M18.8,32.3c-1.1-0.4-2.6-1.1-4-2c-0.6-0.4-1.3-0.8-1.8-1.3c0.4-0.5,0.8-1.1,1.2-1.6
		c0.6,0.3,1.2,0.7,1.8,1c1.4,0.9,2.7,1.9,3.5,2.7c0.8,0.9,0.9,1.3,0.9,1.4C20.4,32.6,20.1,32.7,18.8,32.3 M40.2,9.2
		c-0.5-0.5-1.3-0.8-2.3-0.8c-2.6,0-6.6,1.9-11.2,5.3c-4.9,3.5-11.4,10.6-13,12.8C8.3,33.4,6.3,38.9,8.4,41c0.5,0.5,1.3,0.8,2.3,0.8
		h0c4.1,0,11.5-4.7,18.6-11.7c4.3-4.3,7.8-8.8,9.8-12.6C41.2,13.5,41.6,10.6,40.2,9.2"/>
</g>
</svg>
