<?xml version="1.0" encoding="utf-8"?>
<!-- Generator: Adobe Illustrator 18.1.1, SVG Export Plug-In . SVG Version: 6.00 Build 0)  -->
<svg version="1.1" id="Ebene_1" xmlns="http://www.w3.org/2000/svg" xmlns:xlink="http://www.w3.org/1999/xlink" x="0px" y="0px"
	 viewBox="0 0 49.6 49.6" enable-background="new 0 0 49.6 49.6" xml:space="preserve">
<g>
	<defs>
		<rect id="SVGID_1_" y="0" width="49.6" height="49.6"/>
	</defs>
	<clipPath id="SVGID_2_">
		<use xlink:href="#SVGID_1_"  overflow="visible"/>
	</clipPath>
	<path clip-path="url(#SVGID_2_)" fill="#DCA050" d="M15.9,0C15.9,0,0,0,0,15.9v33.7h49.6V0H15.9z"/>
	<path clip-path="url(#SVGID_2_)" fill="#FFFFFF" d="M30.1,23.8H19.5l-4.2-5.3c0,0,3.2-4.2,9.5-4.2c6.3,0,9.5,4.2,9.5,4.2L30.1,23.8
		z M33.4,11.1H16.2c-2.8,0-5.1,2.3-5.1,5.1v17.1c0,2.8,2.3,5.1,5.1,5.1h17.1c2.8,0,5.1-2.3,5.1-5.1V16.2
		C38.5,13.4,36.2,11.1,33.4,11.1"/>
</g>
<polygon fill="#FFFFFF" points="27.6,22.7 29,16.4 24.8,22.7 "/>
<g>
	<defs>
		<rect id="SVGID_3_" y="0" width="49.6" height="49.6"/>
	</defs>
	<clipPath id="SVGID_4_">
		<use xlink:href="#SVGID_3_"  overflow="visible"/>
	</clipPath>
	<path clip-path="url(#SVGID_4_)" fill="#FFFFFF" d="M40.4,27.9c-0.3-0.3-0.6-0.4-0.9-0.4c-0.2,0-0.3,0-0.5,0.1
		c-0.2,0.1-0.3,0.2-0.4,0.3l-8.3,8.4l-2.9-2.9c-0.3-0.3-0.6-0.4-0.9-0.4c-0.3,0-0.7,0.1-0.9,0.4l-1.9,1.9c-0.5,0.5-0.5,1.4,0,1.9
		l1.8,1.8l3,3c0.5,0.5,1.2,0.8,1.9,0.8c0.7,0,1.4-0.3,1.9-0.8l10.2-10.2c0.5-0.5,0.5-1.4,0-1.9L40.4,27.9z"/>
	<path clip-path="url(#SVGID_4_)" fill="none" stroke="#DCA050" stroke-width="0.75" stroke-miterlimit="10" d="M40.4,27.9
		c-0.3-0.3-0.6-0.4-0.9-0.4c-0.2,0-0.3,0-0.5,0.1c-0.2,0.1-0.3,0.2-0.4,0.3l-8.3,8.4l-2.9-2.9c-0.3-0.3-0.6-0.4-0.9-0.4
		c-0.3,0-0.7,0.1-0.9,0.4l-1.9,1.9c-0.5,0.5-0.5,1.4,0,1.9l1.8,1.8l3,3c0.5,0.5,1.2,0.8,1.9,0.8c0.7,0,1.4-0.3,1.9-0.8l10.2-10.2
		c0.5-0.5,0.5-1.4,0-1.9L40.4,27.9z"/>
</g>
</svg>
