<?xml version="1.0" encoding="utf-8"?>
<!-- Generator: Adobe Illustrator 18.1.1, SVG Export Plug-In . SVG Version: 6.00 Build 0)  -->
<svg version="1.1" id="Ebene_1" xmlns="http://www.w3.org/2000/svg" xmlns:xlink="http://www.w3.org/1999/xlink" x="0px" y="0px"
	 viewBox="0 0 49.6 49.6" enable-background="new 0 0 49.6 49.6" xml:space="preserve">
<g>
	<defs>
		<rect id="SVGID_1_" y="0" width="49.6" height="49.6"/>
	</defs>
	<clipPath id="SVGID_2_">
		<use xlink:href="#SVGID_1_"  overflow="visible"/>
	</clipPath>
	<path clip-path="url(#SVGID_2_)" fill="#3D98A8" d="M15.9,0C15.9,0,0,0,0,15.9v33.7h49.6V0H15.9z"/>
	<path clip-path="url(#SVGID_2_)" fill="#FFFFFF" d="M29.8,39.3c0,0.3-0.3,0.5-0.5,0.5c0,0-0.1,0-0.1,0c-0.3,0-0.5-0.3-0.5-0.6
		l0.7-4.8c0-0.3,0.3-0.5,0.6-0.5c0.3,0,0.5,0.3,0.5,0.6L29.8,39.3z M25.7,39.2c0,0.3-0.2,0.6-0.6,0.6s-0.6-0.2-0.6-0.6v-4.9
		c0-0.3,0.2-0.6,0.6-0.6s0.6,0.2,0.6,0.6V39.2z M21.1,39.7C21.1,39.7,21.1,39.7,21.1,39.7c-0.4,0-0.6-0.2-0.6-0.5l-0.7-4.8
		c0-0.3,0.2-0.6,0.5-0.6c0.3,0,0.6,0.2,0.6,0.5l0.7,4.8C21.7,39.4,21.4,39.7,21.1,39.7 M29.9,31.1c-1.2,0.4-2.5,0.6-3.8,0.6
		c-2,0-3.9-0.5-5.6-1.4c-1.3,1.2-3.1,1.8-4.9,1.8c-0.6,0-1.2-0.1-1.8-0.2l1.8,9.6h18l1.6-8.9c-0.4,0.1-0.8,0.1-1.1,0.1
		C32.6,32.7,31.1,32.1,29.9,31.1"/>
	<path clip-path="url(#SVGID_2_)" fill="#FFFFFF" d="M13.1,30.5c0.1,0,0.2,0.1,0.3,0.1c0.1,0,0.2,0.1,0.3,0.1c0.6,0.2,1.3,0.3,2,0.3
		c1.9,0,3.5-0.8,4.7-2.1c1.6,1.1,3.6,1.7,5.7,1.7c1.4,0,2.8-0.3,4-0.8c1,1.1,2.5,1.8,4.1,1.8c0.5,0,0.9-0.1,1.4-0.2
		c0.1,0,0.2,0,0.3-0.1c0.1,0,0.2-0.1,0.3-0.1c2.2-0.8,3.7-2.9,3.7-5.3c0-2.5-1.7-4.7-4-5.4c-0.5-4.6-4.7-8.1-9.8-8.1
		c-4.4,0-8,2.6-9.4,6.2c-0.3-0.1-0.7-0.1-1-0.1c-3.5,0-6.3,2.8-6.3,6.3C9.4,27.3,10.9,29.5,13.1,30.5"/>
</g>
</svg>
