<?xml version="1.0" encoding="utf-8"?>
<!-- Generator: Adobe Illustrator 18.1.1, SVG Export Plug-In . SVG Version: 6.00 Build 0)  -->
<svg version="1.1" id="Ebene_1" xmlns="http://www.w3.org/2000/svg" xmlns:xlink="http://www.w3.org/1999/xlink" x="0px" y="0px"
	 viewBox="0 0 49.6 49.6" enable-background="new 0 0 49.6 49.6" xml:space="preserve">
<g>
	<defs>
		<rect id="SVGID_1_" y="0" width="49.6" height="49.6"/>
	</defs>
	<clipPath id="SVGID_2_">
		<use xlink:href="#SVGID_1_"  overflow="visible"/>
	</clipPath>
	<path clip-path="url(#SVGID_2_)" fill="#3D98A8" d="M15.9,0C15.9,0,0,0,0,15.9v33.7h49.6V0H15.9z"/>
	<path clip-path="url(#SVGID_2_)" fill="#FFFFFF" d="M30.1,17.2L30,19H18.8l-0.1-1.8H30.1z M37.1,16.3c0-3.4-2.8-6.2-6.2-6.2
		c-3.1,0-5.7,2.3-6.1,5.3h-3.6l-1.5-6.4c-0.1-0.2-0.2-0.4-0.4-0.6c-0.2-0.1-0.5-0.1-0.7,0l-6,2.6c-0.4,0.2-0.6,0.7-0.4,1.1
		c0.2,0.4,0.7,0.6,1.1,0.4l5.1-2.2l1.2,5h-1.7c-0.2,0-0.5,0.1-0.6,0.3c-0.2,0.2-0.2,0.4-0.2,0.6l1.1,22.8c0,0.5,0.4,0.8,0.8,0.8
		h10.9c0.5,0,0.8-0.4,0.8-0.8l0.8-16.7C34.7,22.2,37.1,19.5,37.1,16.3"/>
</g>
</svg>
