<?xml version="1.0" encoding="utf-8"?>
<!-- Generator: Adobe Illustrator 18.1.1, SVG Export Plug-In . SVG Version: 6.00 Build 0)  -->
<svg version="1.1" id="Ebene_1" xmlns="http://www.w3.org/2000/svg" xmlns:xlink="http://www.w3.org/1999/xlink" x="0px" y="0px"
	 viewBox="0 0 49.6 49.6" enable-background="new 0 0 49.6 49.6" xml:space="preserve">
<g>
	<defs>
		<rect id="SVGID_1_" y="0" width="49.6" height="49.6"/>
	</defs>
	<clipPath id="SVGID_2_">
		<use xlink:href="#SVGID_1_"  overflow="visible"/>
	</clipPath>
	<path clip-path="url(#SVGID_2_)" fill="#3D98A8" d="M15.9,0C15.9,0,0,0,0,15.9v33.7h49.6V0H15.9z"/>
</g>
<polygon fill="#FFFFFF" points="21.5,11.9 19.8,12.4 20.9,18.7 23,18.7 "/>
<polygon fill="#FFFFFF" points="27.9,13.5 26.1,13.5 25.9,18.7 27.9,18.7 "/>
<polygon fill="#FFFFFF" points="30.4,16.2 28.6,16.2 28.5,18.7 30.4,18.7 "/>
<polygon fill="#FFFFFF" points="32.9,14.4 31.1,14.4 31,18.7 32.9,18.7 "/>
<polygon fill="#FFFFFF" points="40.8,13.2 39,12.7 37.9,18.7 40,18.7 "/>
<polygon fill="#FFFFFF" points="37.8,14.9 36,14.6 35.6,18.7 37.6,18.7 "/>
<polygon fill="#FFFFFF" points="35.2,16 33.4,15.8 33.5,18.7 35.4,18.7 "/>
<polygon fill="#FFFFFF" points="25,14.7 23.2,15 23.5,18.7 25.5,18.7 "/>
<g>
	<defs>
		<rect id="SVGID_3_" y="0" width="49.6" height="49.6"/>
	</defs>
	<clipPath id="SVGID_4_">
		<use xlink:href="#SVGID_3_"  overflow="visible"/>
	</clipPath>
	<path clip-path="url(#SVGID_4_)" fill="#FFFFFF" d="M39.8,20.1h-20l1,5.3h5.5c4.8,0,6.3,5.3,6.4,5.9c0,0.1,0,0.1,0,0.2c0,0,0,0,0,0
		c1.4,0.1,2.6,1.2,2.6,2.6c0,1.4-1.2,2.5-2.6,2.6c0,0,0,0.1,0,0.1c0,0-0.7,2.6-3,4h7.6L41,20.1H39.8z"/>
	<path clip-path="url(#SVGID_4_)" fill="#FFFFFF" d="M30.6,28.9c-1.1-1.7-2.6-2.6-4.4-2.6h-9.5c-3.4,0-4.9,3.3-5.3,4.7h20.2
		C31.4,30.5,31.1,29.7,30.6,28.9"/>
	<path clip-path="url(#SVGID_4_)" fill="#FFFFFF" d="M23,37.2H11.5c0.5,1.2,1.9,3.7,5.3,3.7h9.5c0.1,0,0.2,0,0.4,0
		c3.1-0.2,4.4-2.5,4.9-3.7H23z"/>
	<path clip-path="url(#SVGID_4_)" fill="#FFFFFF" d="M32.6,32.6H10.4c-0.9,0-1.6,0.7-1.6,1.5c0,0.8,0.7,1.5,1.6,1.5h22.2
		c0.9,0,1.6-0.7,1.6-1.5C34.3,33.3,33.5,32.6,32.6,32.6"/>
</g>
</svg>
