<?xml version="1.0" encoding="utf-8"?>
<!-- Generator: Adobe Illustrator 18.1.1, SVG Export Plug-In . SVG Version: 6.00 Build 0)  -->
<svg version="1.1" id="Ebene_1" xmlns="http://www.w3.org/2000/svg" xmlns:xlink="http://www.w3.org/1999/xlink" x="0px" y="0px"
	 viewBox="0 0 49.6 49.6" enable-background="new 0 0 49.6 49.6" xml:space="preserve">
<g>
	<defs>
		<rect id="SVGID_1_" y="0" width="49.6" height="49.6"/>
	</defs>
	<clipPath id="SVGID_2_">
		<use xlink:href="#SVGID_1_"  overflow="visible"/>
	</clipPath>
	<path clip-path="url(#SVGID_2_)" fill="#3D98A8" d="M15.9,0C15.9,0,0,0,0,15.9v33.7h49.6V0H15.9z"/>
	<path clip-path="url(#SVGID_2_)" fill="#FFFFFF" d="M31.3,32.6c-4.8-0.1-8.7-2.2-12-5.6c-1.4-1.5,0.8-3.8,2.3-2.3
		c2.7,2.8,5.8,4.6,9.8,4.7C33.4,29.5,33.4,32.7,31.3,32.6 M41.9,34.9l-1.4,0.2l-0.3,0l-0.3,0.1c0.3-3.4-1.8-7.1-6.1-7.4
		c-6.1-0.4-12.7-4.6-14-11.1c-0.6-2.9-3.5-4.7-6.3-4.7c-0.3,0-0.6,0-0.9,0.1c-0.2,0-0.5,0.1-0.7,0.1c-0.8,0.2-1.5,0.6-2.1,1
		c-2.1,1.5-3,4.2-2.4,6.9C9.8,32.3,22,40,33.7,40.7c0.2,0,0.3,0,0.5,0c2,0,3.5-0.8,4.5-2.1l0.3,0.2l0.2,0.2l1.8,1.3
		c0.3,0.2,0.6,0.1,0.6-0.2l0.8-4.6C42.5,35.1,42.2,34.9,41.9,34.9"/>
	<path clip-path="url(#SVGID_2_)" fill="#FFFFFF" d="M7.8,9.8c-0.3,0.1-0.5,0.4-0.2,0.6l1.8,2.4c0.7-0.5,1.4-0.9,2.3-1.1
		c0.3-0.1,0.7-0.1,1-0.2L13,9.4c0-0.3-0.2-0.6-0.5-0.5L7.8,9.8z"/>
</g>
</svg>
